<svg width="189" height="189" xmlns="http://www.w3.org/2000/svg" xmlns:xlink="http://www.w3.org/1999/xlink" overflow="hidden"><defs><clipPath id="clip0"><rect x="0" y="0" width="189" height="189"/></clipPath><clipPath id="clip1"><rect x="28" y="14" width="144" height="133"/></clipPath><clipPath id="clip2"><rect x="28" y="14" width="144" height="133"/></clipPath><clipPath id="clip3"><rect x="28" y="14" width="144" height="133"/></clipPath></defs><g clip-path="url(#clip0)"><rect x="0" y="0" width="189" height="189" fill="#FFFFFF"/><path d="M174.896 132.333 14.1042 132.333 14.1042 28.2917 174.896 28.2917 174.896 132.333ZM179.625 14.1042 9.375 14.1042C4.17292 14.1042-0.083334 18.3604-0.083334 23.5625L-0.083334 137.062C-0.083334 142.265 4.17292 146.521 9.375 146.521L75.5833 146.521 75.5833 160.708 51.9375 160.708 51.9375 174.896 137.062 174.896 137.062 160.708 113.417 160.708 113.417 146.521 179.625 146.521C184.827 146.521 189.083 142.265 189.083 137.062L189.083 23.5625C189.083 18.3604 184.827 14.1042 179.625 14.1042Z"/><g clip-path="url(#clip1)"><g clip-path="url(#clip2)"><g clip-path="url(#clip3)"><path d="M40.0385 51.2604 109.448 51.2604 109.448 44.3333C109.448 41.2854 106.954 38.7917 103.906 38.7917L62.3438 38.7917 47.1042 28.6781C46.1344 28.124 45.1646 27.7083 44.0562 27.7083L18.0104 27.7083C14.9625 27.7083 12.4688 30.2021 12.4688 33.25L12.4688 101.135C12.4688 101.412 30.3406 57.7719 30.3406 57.7719 32.0031 53.8927 35.7437 51.2604 40.0385 51.2604Z" transform="matrix(1.08271 0 0 1 28 14)"/><path d="M120.531 62.3438C120.531 59.4344 118.453 57.0792 115.544 56.8021L40.0385 56.8021C37.9604 56.8021 36.1594 58.049 35.3281 59.85L16.625 105.292 101.135 105.292 119.977 64.8375C120.393 64.0062 120.531 63.175 120.531 62.3438L120.531 62.3438Z" transform="matrix(1.08271 0 0 1 28 14)"/></g></g></g></g></svg>